<svg width="1024" height="1024" viewBox="0 0 1024 1024" fill="none" xmlns="http://www.w3.org/2000/svg">
  <defs>
    
    <linearGradient id="tile" x1="512" y1="40" x2="512" y2="984" gradientUnits="userSpaceOnUse">
      <stop offset="0" stop-color="#0E1A15"></stop>
      <stop offset="0.55" stop-color="#081310"></stop>
      <stop offset="1" stop-color="#040A08"></stop>
    </linearGradient>
    
    <radialGradient id="fel" cx="512" cy="500" r="360" gradientUnits="userSpaceOnUse">
      <stop offset="0" stop-color="#7BFFB4" stop-opacity="0.9"></stop>
      <stop offset="0.3" stop-color="#2FE882" stop-opacity="0.45"></stop>
      <stop offset="0.7" stop-color="#0E7B44" stop-opacity="0.12"></stop>
      <stop offset="1" stop-color="#0E7B44" stop-opacity="0"></stop>
    </radialGradient>
    <radialGradient id="core" cx="512" cy="490" r="120" gradientUnits="userSpaceOnUse">
      <stop offset="0" stop-color="#EAFFF3"></stop>
      <stop offset="0.35" stop-color="#8CFFC2"></stop>
      <stop offset="1" stop-color="#2BE07C"></stop>
    </radialGradient>
    <linearGradient id="ring" x1="512" y1="300" x2="512" y2="700" gradientUnits="userSpaceOnUse">
      <stop offset="0" stop-color="#54F59A"></stop>
      <stop offset="1" stop-color="#159E56"></stop>
    </linearGradient>
    <filter id="soft" x="-40%" y="-40%" width="180%" height="180%">
      <feGaussianBlur stdDeviation="10"></feGaussianBlur>
    </filter>
    <clipPath id="tileClip">
      <path d="M512 32&#xA;        C 233 32, 96 32, 64 64&#xA;        C 32 96, 32 233, 32 512&#xA;        C 32 791, 32 928, 64 960&#xA;        C 96 992, 233 992, 512 992&#xA;        C 791 992, 928 992, 960 960&#xA;        C 992 928, 992 791, 992 512&#xA;        C 992 233, 992 96, 960 64&#xA;        C 928 32, 791 32, 512 32 Z"></path>
    </clipPath>
  </defs>

  
  <g clip-path="url(#tileClip)">
    <rect x="0" y="0" width="1024" height="1024" fill="url(#tile)"></rect>
    <rect x="0" y="0" width="1024" height="1024" fill="url(#fel)"></rect>

    
    <g stroke-linejoin="round" fill="none">
      <rect x="192" y="180" width="640" height="640" rx="200" stroke="url(#ring)" stroke-width="14" opacity="0.28"></rect>
      <rect x="272" y="262" width="480" height="480" rx="150" stroke="url(#ring)" stroke-width="15" opacity="0.5"></rect>
      <rect x="348" y="340" width="328" height="328" rx="104" stroke="url(#ring)" stroke-width="16" opacity="0.8"></rect>
      <rect x="418" y="412" width="188" height="188" rx="60" stroke="#9BFFCB" stroke-width="16"></rect>
    </g>

    
    <circle cx="512" cy="500" r="52" fill="url(#core)" filter="url(#soft)"></circle>
    <circle cx="512" cy="498" r="30" fill="#F2FFF8"></circle>

    
    <path d="M64 64 C 200 40, 824 40, 960 64 C 900 120, 124 120, 64 64 Z" fill="#ffffff" opacity="0.05"></path>
  </g>
</svg>